PathFileType	4	(X/Y/Z)	D:\TRACE\spotREDO_2-26-24\spot_baseline_3-v60.trc
DataRate	CameraRate	NumFrames	NumMarkers	Units	OrigDataRate	OrigDataStartFrame	OrigNumFrames
100.00	100.00	      28	9	mm	100.00	876	      7000
Frame#	Time	front left toe			Front right toe			aft left toe			aft right toe			Arm			FL body			FR body			AL Body			AR Body			
		X1	Y1	Z1	X2	Y2	Z2	X3	Y3	Z3	X4	Y4	Z4	X5	Y5	Z5	X6	Y6	Z6	X7	Y7	Z7	X8	Y8	Z8	X9	Y9	Z9	

876	8.750	-208.86775	22.05517	-270.15005	365.48569	28.15196	-217.97981	-198.38481	19.67062	225.54668	314.84534	30.77968	319.00266	74.33714	805.66718	-385.86835	-11.25597	546.75574	-366.37476	143.75946	550.99146	-354.95282	-85.46880	565.05383	513.69141	62.23788	565.55475	527.43585	
877	8.760	-208.84534	22.08374	-270.17627	365.61179	27.96970	-217.99524	-198.35880	19.68366	225.51961	314.90192	30.66818	318.96896	74.96514	805.58990	-386.47235	-10.22913	546.46802	-366.77994	144.85823	550.86279	-355.32248	-84.58002	565.20599	513.27203	62.85630	565.62085	526.56085	
878	8.770	-208.78601	22.10837	-270.23929	365.83936	27.89902	-218.13278	-198.29449	19.70756	225.53346	314.99612	30.60831	318.92566	75.73193	805.53668	-386.97180	-9.55277	546.42700	-367.27969	145.50455	550.80231	-355.89252	-83.22684	565.31793	512.88367	64.09648	565.77649	526.10004	
879	8.780	-208.75745	22.28191	-270.25638	365.79843	27.89249	-218.12604	-198.15324	19.78164	225.54349	315.18808	30.63313	318.91232	76.52686	805.54565	-387.61746	-8.64670	546.42053	-367.69986	146.40227	550.83417	-356.36755	-82.39099	565.34076	512.20984	65.15125	565.83551	525.68195	
880	8.790	-208.73323	22.25662	-270.31479	365.99805	27.82228	-218.24277	-197.92166	19.98616	225.53894	315.21085	30.62452	318.90033	77.42098	805.62695	-387.96283	-7.76949	546.41901	-368.23367	147.35817	550.83783	-356.78909	-81.29202	565.43646	511.88034	66.58900	565.99310	525.51477	
881	8.800	-208.69460	22.27388	-270.33624	366.28665	28.44988	-217.72371	-197.78267	19.99221	225.53656	315.13489	30.55572	318.85764	78.25726	805.64301	-388.38715	-6.94725	546.42993	-368.61591	148.24571	550.88440	-357.24823	-80.45260	565.41931	511.27933	67.75930	565.99493	525.15619	
882	8.810	-208.70590	22.27666	-270.36053	366.37610	28.41852	-217.71480	-197.79286	19.93337	225.52386	315.06311	30.43687	318.81006	79.27272	805.64648	-388.99289	-5.98391	546.48383	-369.10760	149.28088	550.86023	-357.63687	-79.28498	565.28552	510.99893	68.27036	565.82599	524.18091	
883	8.820	-208.62665	22.29428	-270.45364	366.14600	27.75737	-218.24254	-197.65787	19.93155	225.49069	315.17209	30.47722	318.86069	79.83234	805.61359	-389.35605	-4.99311	546.37622	-369.61972	150.24095	550.92377	-358.30264	-78.12045	565.13757	510.43820	69.20627	565.81897	523.72498	
884	8.830	-208.53102	22.35501	-270.47330	366.17926	27.78417	-218.19179	-197.57489	20.01930	225.50186	315.19360	30.37251	318.79086	80.75186	805.52972	-389.83786	-3.87166	546.39551	-370.16153	151.23956	551.00378	-358.81775	-77.19087	565.00104	510.01233	70.60786	565.91138	523.23303	
885	8.840	-208.45544	22.52242	-270.50204	366.42282	27.83383	-218.09657	-197.53371	20.09319	225.45758	315.16534	30.32540	318.83691	81.63434	805.56232	-390.42719	-2.98742	546.44568	-370.63184	152.18861	551.13580	-359.52139	-75.92714	564.97064	509.48709	71.91801	565.91315	523.07117	
886	8.850	-208.38916	22.67484	-270.56970	366.51611	27.82358	-218.08556	-197.46841	20.17501	225.42502	315.34506	30.24349	318.85162	82.66886	805.67590	-390.86652	-1.81398	546.49835	-371.20624	153.33386	551.21796	-359.91922	-74.77968	564.84125	508.89301	72.65020	565.72162	521.99622	
887	8.860	-208.24092	22.65416	-270.58478	366.76230	27.73824	-217.91428	-197.31964	20.20204	225.38258	315.30542	30.09324	318.86081	83.75391	805.83777	-391.55737	-0.50922	546.35431	-371.80475	154.45349	551.25659	-360.60614	-73.27979	564.78510	508.77628	73.86646	565.75208	521.64154	
888	8.870	-208.15111	22.66935	-270.59448	366.96912	27.62431	-217.80833	-197.11269	20.23335	225.30870	315.37717	29.93812	318.90549	84.78938	805.89679	-392.06534	0.57588	546.31952	-372.47513	155.44261	551.43945	-361.20557	-72.47897	564.62781	507.89551	74.99741	565.64722	520.97260	
889	8.880	-207.99515	22.67406	-270.60776	367.06119	27.68329	-217.72964	-196.95499	20.26865	225.31981	315.44312	29.86226	318.95807	85.98222	805.93097	-392.62988	1.65491	546.50977	-373.03409	156.70302	551.54309	-361.93967	-71.21606	564.48083	507.23364	76.15295	565.66254	520.34875	
890	8.890	-207.93971	22.80064	-270.68124	366.92023	27.55398	-217.85686	-196.92072	20.32115	225.27025	315.51498	29.79296	318.98904	87.02778	806.03857	-393.09082	2.87562	546.58582	-373.61847	157.93074	551.64026	-362.23834	-70.18911	564.48615	506.60208	77.52988	565.44678	519.72961	
891	8.900	-207.82693	22.92308	-270.77347	367.12274	27.65425	-217.80765	-196.86966	20.53768	225.17650	315.56235	29.77411	319.00964	88.17746	806.33643	-393.99094	4.16158	546.78857	-374.40604	159.51416	551.77820	-362.97150	-68.83035	564.28455	505.76953	78.54795	565.33563	519.02515	
892	8.910	-207.79333	23.07867	-270.91608	367.53067	28.12480	-217.29958	-196.84813	20.70533	225.10085	315.75296	29.74817	319.04282	89.36979	806.45544	-394.38464	5.61517	546.90930	-375.18451	160.81812	551.89191	-363.61606	-67.66551	564.24329	505.21719	79.76133	565.22485	518.36145	
893	8.920	-207.68405	23.16071	-271.07385	368.59735	28.67214	-217.04890	-196.76575	20.64137	225.01848	315.79282	29.72569	319.06622	90.93725	806.37585	-395.07916	6.91716	546.86316	-375.76892	162.02356	551.93768	-364.20328	-66.25130	564.11084	504.62018	80.97227	565.20117	517.75610	
894	8.930	-207.58676	23.18517	-271.07553	367.76062	27.71894	-217.33379	-196.71767	20.67186	224.99144	315.93286	29.57924	319.11938	92.09965	806.47797	-395.68402	8.14342	546.90906	-376.45740	163.41026	552.07928	-365.17175	-65.15945	563.89111	503.76068	82.51088	565.01501	516.75134	
895	8.940	-207.46309	23.22124	-271.13367	368.82068	28.30479	-217.08968	-196.65199	20.75787	224.94005	316.05270	29.54458	319.13489	93.63904	806.55322	-396.46686	9.65482	547.16144	-377.31601	164.50612	552.16125	-365.90430	-64.00539	563.84357	502.77539	83.67233	564.85461	516.26080	
896	8.950	-207.32570	23.30886	-271.24188	367.74164	27.43331	-217.49173	-196.58560	20.82292	224.83806	316.31970	29.51239	319.19315	95.19698	806.73248	-397.21771	10.95432	547.20996	-378.04355	165.91090	552.18396	-366.76950	-62.49065	563.63538	502.06076	85.25384	564.87585	515.55347	
897	8.960	-207.21126	23.35880	-271.33936	368.99683	28.08028	-217.13248	-196.55412	21.04398	224.79259	316.31009	29.41488	319.17096	96.55489	806.83728	-397.94690	12.41675	547.15845	-378.92072	167.48715	552.33136	-367.60162	-61.05444	563.56750	501.45462	86.28638	564.74237	514.49908	
898	8.970	-207.10709	23.44947	-271.39386	369.16220	28.00795	-217.10918	-196.47414	21.10336	224.72984	316.56836	29.32438	319.19043	98.09335	806.89056	-398.88272	13.99345	547.32813	-379.93469	169.08975	552.34113	-368.44461	-59.85970	563.55328	500.34097	87.67429	564.71960	513.51221	
899	8.980	-207.02861	23.37880	-271.44238	369.16061	27.98355	-217.09552	-196.40648	21.11561	224.74593	316.44547	29.19384	319.17636	99.66769	806.93073	-399.75620	15.60520	547.23181	-380.64215	170.77602	552.24780	-369.10681	-58.33573	563.50452	499.36432	89.10579	564.58740	512.73615	
900	8.990	-206.95549	23.36808	-271.51505	369.16312	27.91427	-217.15927	-196.35167	21.08800	224.66467	316.61679	29.15758	319.29062	101.11913	806.92700	-400.73267	17.16395	547.22131	-381.75168	172.31439	552.32483	-370.23663	-57.07813	563.42035	498.31116	90.79774	564.31189	511.94867	
901	9.000	-206.86145	23.41630	-271.53247	369.13373	27.92239	-217.18933	-196.32323	21.13729	224.62225	316.64969	29.12333	319.27747	102.94120	806.99792	-401.60049	18.72705	547.38293	-382.72739	173.75360	552.39465	-371.32510	-55.33775	563.42676	497.43011	92.59386	564.48334	510.92316	
902	9.010	-206.82307	23.64100	-271.58328	369.22968	27.94683	-217.10379	-196.26218	21.18347	224.61272	316.82587	29.07726	319.39868	104.76628	807.01270	-402.63565	20.26157	547.46161	-383.91559	175.47972	552.43402	-372.30963	-53.57906	563.35669	496.18164	94.41259	564.51154	509.98859	
903	9.020	-206.76260	23.91551	-271.68900	369.22433	27.87066	-217.19046	-196.14738	21.25317	224.55685	316.90762	29.01965	319.42694	106.31895	806.93329	-403.85159	21.85760	547.56219	-385.17133	177.10649	552.45703	-373.52869	-51.96765	563.16162	495.00375	96.63965	564.46674	509.08929	
